<?xml version="1.0" standalone="no"?>
<!DOCTYPE svg PUBLIC "-//W3C//DTD SVG 1.1//EN"
   "http://www.w3.org/Graphics/SVG/1.1/DTD/svg11.dtd">
<svg width="352" height="119" version="1.1"
   xmlns="http://www.w3.org/2000/svg">
   <desc>Zint Generated Symbol
   </desc>

   <g id="barcode" fill="#000000">
      <rect x="0" y="0" width="352" height="119" fill="#FFFFFF" />
      <rect x="20.00" y="0.00" width="4.00" height="100.00" />
      <rect x="26.00" y="0.00" width="2.00" height="100.00" />
      <rect x="32.00" y="0.00" width="2.00" height="100.00" />
      <rect x="42.00" y="0.00" width="2.00" height="100.00" />
      <rect x="48.00" y="0.00" width="6.00" height="100.00" />
      <rect x="56.00" y="0.00" width="4.00" height="100.00" />
      <rect x="64.00" y="0.00" width="2.00" height="100.00" />
      <rect x="70.00" y="0.00" width="6.00" height="100.00" />
      <rect x="78.00" y="0.00" width="4.00" height="100.00" />
      <rect x="86.00" y="0.00" width="2.00" height="100.00" />
      <rect x="92.00" y="0.00" width="6.00" height="100.00" />
      <rect x="102.00" y="0.00" width="4.00" height="100.00" />
      <rect x="108.00" y="0.00" width="2.00" height="100.00" />
      <rect x="114.00" y="0.00" width="4.00" height="100.00" />
      <rect x="120.00" y="0.00" width="6.00" height="100.00" />
      <rect x="130.00" y="0.00" width="4.00" height="100.00" />
      <rect x="138.00" y="0.00" width="2.00" height="100.00" />
      <rect x="142.00" y="0.00" width="6.00" height="100.00" />
      <rect x="152.00" y="0.00" width="2.00" height="100.00" />
      <rect x="158.00" y="0.00" width="6.00" height="100.00" />
      <rect x="166.00" y="0.00" width="4.00" height="100.00" />
      <rect x="174.00" y="0.00" width="2.00" height="100.00" />
      <rect x="180.00" y="0.00" width="6.00" height="100.00" />
      <rect x="188.00" y="0.00" width="4.00" height="100.00" />
      <rect x="196.00" y="0.00" width="2.00" height="100.00" />
      <rect x="200.00" y="0.00" width="6.00" height="100.00" />
      <rect x="210.00" y="0.00" width="4.00" height="100.00" />
      <rect x="218.00" y="0.00" width="4.00" height="100.00" />
      <rect x="226.00" y="0.00" width="6.00" height="100.00" />
      <rect x="236.00" y="0.00" width="2.00" height="100.00" />
      <rect x="240.00" y="0.00" width="6.00" height="100.00" />
      <rect x="250.00" y="0.00" width="2.00" height="100.00" />
      <rect x="254.00" y="0.00" width="4.00" height="100.00" />
      <rect x="262.00" y="0.00" width="4.00" height="100.00" />
      <rect x="268.00" y="0.00" width="6.00" height="100.00" />
      <rect x="278.00" y="0.00" width="2.00" height="100.00" />
      <rect x="284.00" y="0.00" width="2.00" height="100.00" />
      <rect x="290.00" y="0.00" width="8.00" height="100.00" />
      <rect x="302.00" y="0.00" width="2.00" height="100.00" />
      <rect x="306.00" y="0.00" width="4.00" height="100.00" />
      <rect x="316.00" y="0.00" width="6.00" height="100.00" />
      <rect x="324.00" y="0.00" width="2.00" height="100.00" />
      <rect x="328.00" y="0.00" width="4.00" height="100.00" />
      <text x="176.00" y="115.40" text-anchor="middle"
         font-family="Helvetica, sans-serif" font-size="14.0" >
         001-300/295
      </text>
   </g>
</svg>
